<svg height='100px' width='100px'  fill="#FFFFFF" viewBox="0 0 32 32.000001" version="1.1" x="0px" y="0px"><g transform="translate(0,-1020.3622)"><path style="" d="M 1 3 C 0.447 3 0 3.4859844 0 4.0839844 L 0 27.916016 C 0 28.515016 0.447 29 1 29 L 31 29 C 31.553 29 32 28.515016 32 27.916016 L 32 4.0839844 C 32 3.4849844 31.553 3 31 3 L 1 3 z M 23 4 C 23.553 4 24 4.447 24 5 C 24 5.553 23.553 6 23 6 C 22.447 6 22 5.553 22 5 C 22 4.447 22.447 4 23 4 z M 26 4 C 26.553 4 27 4.447 27 5 C 27 5.553 26.553 6 26 6 C 25.447 6 25 5.553 25 5 C 25 4.447 25.447 4 26 4 z M 29 4 C 29.553 4 30 4.447 30 5 C 30 5.553 29.553 6 29 6 C 28.447 6 28 5.553 28 5 C 28 4.447 28.447 4 29 4 z M 1.9375 7 L 30.0625 7 C 30.5805 7 31 7.392 31 7.875 L 31 27.125 C 31 27.608 30.5805 28 30.0625 28 L 1.9375 28 C 1.4195 28 0.99804687 27.608 0.99804688 27.125 L 0.99804688 7.875 C 0.99904687 7.392 1.4205 7 1.9375 7 z M 10.941406 14.001953 C 10.398406 14.001953 9.9570312 14.441375 9.9570312 14.984375 C 9.9570312 15.527375 10.398406 15.966797 10.941406 15.966797 C 11.484406 15.966797 11.923828 15.527375 11.923828 14.984375 C 11.923828 14.441375 11.484406 14.001953 10.941406 14.001953 z M 20.962891 14.001953 C 20.419891 14.001953 19.978516 14.441375 19.978516 14.984375 C 19.978516 15.527375 20.419891 15.966797 20.962891 15.966797 C 21.505891 15.966797 21.945312 15.527375 21.945312 14.984375 C 21.945312 14.441375 21.505891 14.001953 20.962891 14.001953 z M 16.003906 19.996094 C 14.346906 19.996094 13.002 21.337141 13 22.994141 L 13 23.003906 L 19 23 C 19.002 21.344 17.660906 19.997094 16.003906 19.996094 z " transform="translate(0,1020.3622)" fill="#FFFFFF"></path></g></svg>