<svg fill="#e4002c" xmlns="http://www.w3.org/2000/svg" version="1.1" x="0px" y="0px" viewBox="0 0 100 100"><g transform="translate(0,-952.36218)"><path style="text-indent:0;text-transform:none;direction:ltr;block-progression:tb;baseline-shift:baseline;color:#000000;enable-background:accumulate;" d="m 41.963956,981.62438 c -6.10699,0 -11.0541,4.94861 -11.0541,11.05418 0,5.4283 4.75212,11.28254 9.32858,17.68664 a 1.9920411,1.9920411 0 0 0 -0.91668,0.7547 l -4.42164,6.4169 a 1.9920411,1.9920411 0 0 0 1.24021,3.0734 l 23.0788,4.5835 a 1.9920411,1.9920411 0 0 0 1.6716,-0.3773 l 14.61298,-11.8091 a 1.9920411,1.9920411 0 0 0 -0.21569,-3.2354 l -9.16681,-5.7158 a 1.9920411,1.9920411 0 0 0 -1.29414,-0.2697 1.9920411,1.9920411 0 0 0 -0.26961,0.054 l -19.95131,5.3383 c 4.34579,-5.8585 8.4119,-11.42164 8.4119,-16.50014 0,-6.10592 -4.94976,-11.05419 -11.05409,-11.05419 z m 0,2.58828 c 4.62904,0 8.35797,3.72798 8.35797,8.3579 0,4.6301 -3.72893,8.41194 -8.35797,8.41194 -4.63038,0 -8.4119,-3.78184 -8.4119,-8.41194 0,-4.62992 3.78152,-8.3579 8.4119,-8.3579 z m 22.75526,23.67194 6.09324,3.8285 -11.70117,9.3825 -19.19639,-3.7745 2.31867,-3.3972 22.48565,-6.0393 z" fill="#e4002c" fill-opacity="1" stroke="none" marker="none" visibility="visible" display="inline" overflow="visible"></path></g></svg>