<svg height='100px' width='100px'  fill="#343332" xmlns="http://www.w3.org/2000/svg" xmlns:xlink="http://www.w3.org/1999/xlink" version="1.1" x="0px" y="0px" viewBox="0 0 512 512" style="enable-background:new 0 0 512 512;" xml:space="preserve"><g><g><polygon points="147.092,127.153 73.94,54 54,73.937 107.216,127.153   "></polygon><polygon points="412.499,392.562 372.622,392.562 438.06,458 458,438.063   "></polygon><g><path d="M323.378,127.364l-27.604-53.622h-79.547l-27.842,53.622H70.556v266.189h370.888V127.364H323.378z M372.622,392.562     l-66.197-66.198C292.206,336.559,274.8,342.587,256,342.587c-47.799,0-86.686-38.843-86.686-86.587     c0-18.814,6.057-36.231,16.3-50.448l-77.545-77.545h39.877l57.629,57.63c14.219-10.196,31.625-16.224,50.425-16.224     c47.799,0,86.686,38.843,86.686,86.587c0,18.814-6.057,36.231-16.3,50.448l86.113,86.114H372.622z"></path><path d="M314.487,256c0-32.197-26.237-58.391-58.487-58.391c-11.003,0-21.303,3.053-30.103,8.349l80.178,80.179     C311.411,277.334,314.487,267.019,314.487,256z"></path><path d="M197.513,256c0,32.197,26.237,58.391,58.487,58.391c11.003,0,21.303-3.053,30.103-8.349l-80.178-80.179     C200.588,234.666,197.513,244.981,197.513,256z"></path></g></g></g></svg>