<svg height='100px' width='100px'  fill="#FFFFFF" xmlns="http://www.w3.org/2000/svg" viewBox="0 0 64 64" x="0px" y="0px"><title>1</title><g data-name="Layer 4"><path d="M61,23.67a1,1,0,0,0-1-1H50.34a1,1,0,0,0,0,2h7.24L45.12,37.14H20.32a1,1,0,0,0-.75.33L3.25,55.77A1,1,0,1,0,4.75,57.1l16-18H45.53a1,1,0,0,0,.71-.29L59,26.1v7.24a1,1,0,0,0,2,0V23.69Z"></path><path d="M18.94,21.91l2.12-2.12V31.44a1,1,0,0,0,1,1H41.94a1,1,0,0,0,1-1V19.79l2.12,2.12a1,1,0,0,0,1.41-1.41l-3.82-3.82h0L32.71,6.73a1,1,0,0,0-1.41,0L28.41,9.61V7.82a1,1,0,0,0-1-1H23.59a1,1,0,0,0-1,1v7.62l-1.23,1.23h0l-3.82,3.82a1,1,0,0,0,1.41,1.41ZM32,22.14c-2.31,0-4.17-1.62-4.17-3.58a3.65,3.65,0,0,1,2.77-3.33l.28-.09,0-.3v-.34A1,1,0,0,1,32,13.6a1.22,1.22,0,0,1,.8.29.81.81,0,0,1,.3.62v.63l.29.08a3.67,3.67,0,0,1,2.79,3.38,1,1,0,0,1-1.09.89,1,1,0,0,1-1.1-.91,2,2,0,0,0-4,0,1.89,1.89,0,0,0,2,1.77c2.31,0,4.17,1.62,4.16,3.58a3.66,3.66,0,0,1-2.8,3.34l-.28.08,0,.3v.25a1,1,0,0,1-1.09.89h0a1,1,0,0,1-1.09-.91v-.55l-.28-.09a3.67,3.67,0,0,1-2.77-3.37,1,1,0,0,1,1.1-.9,1,1,0,0,1,1.1.91,2,2,0,0,0,4,0A1.89,1.89,0,0,0,32,22.14ZM24.59,8.82h1.82v2.79l-1.82,1.82Z"></path><path d="M56.75,31.75a1,1,0,0,0-1,1V56.56a1,1,0,0,0,2,0V32.75A1,1,0,0,0,56.75,31.75Z"></path><path d="M51.32,36.72a1,1,0,0,0-1,1V56.56a1,1,0,0,0,2,0V37.72A1,1,0,0,0,51.32,36.72Z"></path><path d="M45.89,41.12a1,1,0,0,0-1,1V56.56a1,1,0,0,0,2,0V42.12A1,1,0,0,0,45.89,41.12Z"></path><path d="M40.46,41.12a1,1,0,0,0-1,1V56.56a1,1,0,0,0,2,0V42.12A1,1,0,0,0,40.46,41.12Z"></path><path d="M35,41.12a1,1,0,0,0-1,1V56.56a1,1,0,0,0,2,0V42.12A1,1,0,0,0,35,41.12Z"></path><path d="M29.6,41.12a1,1,0,0,0-1,1V56.56a1,1,0,0,0,2,0V42.12A1,1,0,0,0,29.6,41.12Z"></path><path d="M24.17,41.12a1,1,0,0,0-1,1V56.56a1,1,0,0,0,2,0V42.12A1,1,0,0,0,24.17,41.12Z"></path><path d="M18.74,43.75a1,1,0,0,0-1,1V56.56a1,1,0,0,0,2,0V44.75A1,1,0,0,0,18.74,43.75Z"></path><path d="M13.31,49.3a1,1,0,0,0-1,1v6.27a1,1,0,0,0,2,0V50.3A1,1,0,0,0,13.31,49.3Z"></path><path d="M7.87,54.79a1,1,0,0,0-1,1v.77a1,1,0,0,0,2,0v-.77A1,1,0,0,0,7.87,54.79Z"></path></g></svg>