<svg height='100px' width='100px'  fill="#FFFFFF" xmlns="http://www.w3.org/2000/svg" data-name="Layer 1" viewBox="0 0 128 128" x="0px" y="0px"><title>miscellaneous 64 solid</title><path d="M72.3335,119h-17.479a8.095,8.095,0,0,1-3.19043-.65814V119.876c0,4.85938,3.10986,8.124,7.73828,8.124h9.1875c4.63184,0,7.74365-3.26465,7.74365-8.124v-1.40729a8.03819,8.03819,0,0,1-2.874.53131Z"></path><path d="M85.44775,95.44922c.54248-.64648,1.89746-2.02344,3.208-3.35449,1.59473-1.62012,3.10107-3.15039,3.83643-4.043A37.32967,37.32967,0,0,0,64,27,37.336,37.336,0,0,0,39.04395,91.79883a42.5851,42.5851,0,0,1,8.81055,10.76758,24.635,24.635,0,0,1,2.3457,5.94727c.04492.18945.377,1.7627.59277,3.03613A4.119,4.119,0,0,0,54.85449,115h18.605a4.14591,4.14591,0,0,0,4.09229-3.72266C78.269,104.8457,82.80664,98.60059,85.44775,95.44922ZM73.57617,110.834c-.01025.0918-.0625.166-.1167.166h-18.605a.13176.13176,0,0,1-.11816-.11914c-.22705-1.33984-.5791-3.02246-.64893-3.30859a28.57237,28.57237,0,0,0-2.71973-6.918,46.44779,46.44779,0,0,0-9.61377-11.79688A33.33661,33.33661,0,0,1,64,31,33.32954,33.32954,0,0,1,89.4043,85.50879c-.62256.75586-2.2041,2.3623-3.59912,3.78027-1.42871,1.45117-2.77783,2.82129-3.42285,3.59082C78.80225,97.15039,74.36865,103.73145,73.57617,110.834Z"></path><circle cx="46" cy="64" r="2"></circle><path d="M68,103H60a2,2,0,0,0,0,4h8a2,2,0,0,0,0-4Z"></path><path d="M68,44a2.0001,2.0001,0,0,0-2-2c-8.4707,0-16.06348,5.043-19.81543,13.16113a1.99987,1.99987,0,1,0,3.63086,1.67773C52.90527,50.15332,59.10693,46,66,46A2.0001,2.0001,0,0,0,68,44Z"></path><path d="M8.12256,76.33594h7.19336a49.77428,49.77428,0,0,0,5.54443,13.36133L15.76025,94.791a7.75181,7.75181,0,0,0-2.21289,6.02246,9.27133,9.27133,0,0,0,2.7627,6.00488l4.86865,4.87207c3.47168,3.46191,8.86865,3.707,12.03027.543l5.09033-5.09668a49.55916,49.55916,0,0,0,8.35132,3.9917c-.15833-.82788-.31415-1.566-.34644-1.70752a20.59478,20.59478,0,0,0-1.96289-4.94238,38.71245,38.71245,0,0,0-8.00684-9.7373A41.33575,41.33575,0,0,1,64,23,41.32954,41.32954,0,0,1,95.58057,90.59375c-.84912,1.03027-2.41553,2.62207-4.07422,4.30664-1.1377,1.15625-2.55322,2.59375-2.99268,3.11816-2.25031,2.68481-6.0332,7.84576-6.88232,13.00562h.00006a49.59662,49.59662,0,0,0,8.06732-3.88745l5.0918,5.09668c3.1582,3.16211,8.55566,2.9209,12.0332-.54492l4.86475-4.86914c3.4668-3.46094,3.71094-8.8584.54346-12.03223l-5.09375-5.08984a49.85477,49.85477,0,0,0,5.54541-13.36133h7.186c4.48291,0,8.13037-3.98926,8.13037-8.89355V60.55762c0-4.90332-3.64746-8.89209-8.13037-8.89209h-7.186a49.77947,49.77947,0,0,0-5.54492-13.36475l5.09277-5.09033a7.7288,7.7288,0,0,0,2.21777-6.021,9.30911,9.30911,0,0,0-2.7583-6.00781l-4.87109-4.87891c-3.48-3.46143-8.87744-3.70166-12.02832-.53711l-5.09375,5.0957a49.74241,49.74241,0,0,0-13.36426-5.542V8.12256C76.3335,3.64355,72.34229,0,67.436,0H60.55664c-4.90332,0-8.89258,3.64355-8.89258,8.12256v7.19678a49.75125,49.75125,0,0,0-13.36377,5.542L33.21,15.76758c-3.15723-3.16553-8.55371-2.92529-12.03467.54L16.31152,21.1792a9.29288,9.29288,0,0,0-2.76416,6.01025,7.73745,7.73745,0,0,0,2.21631,6.021l5.09668,5.09033a49.68489,49.68489,0,0,0-5.54443,13.36475H8.12256C3.64355,51.66553,0,55.6543,0,60.55762v6.88477C0,72.34668,3.64355,76.33594,8.12256,76.33594Z"></path></svg>