<svg height='100px' width='100px'  fill="#FFFFFF" xmlns="http://www.w3.org/2000/svg" xmlns:xlink="http://www.w3.org/1999/xlink" version="1.1" x="0px" y="0px" viewBox="0 0 100 100" enable-background="new 0 0 100 100" xml:space="preserve"><path d="M50,12.943c-20.434,0-37.059,16.624-37.059,37.058c0,20.433,16.625,37.057,37.059,37.057S87.059,70.434,87.059,50  C87.059,29.567,70.434,12.943,50,12.943z M54.154,69.309h-8.449v-4.722h8.449V69.309z M58.682,51.628  c-3.902,1.933-4.531,4.304-4.531,9.23h-8.449c0-4.274,0-12.229,9.229-16.801c1.779-0.882,2.035-2.446,1.682-3.614  c-0.48-1.583-2.344-3.099-6.141-2.607c-5.701,0.741-6.291,4.168-6.336,5.201l-8.449-0.082c-0.002-4.053,2.857-12.09,13.695-13.499  c8.465-1.097,13.787,3.494,15.316,8.533C66.352,43.444,63.877,49.052,58.682,51.628z"></path></svg>