<svg height='100px' width='100px'  fill="#FFFFFF" xmlns:x="http://ns.adobe.com/Extensibility/1.0/" xmlns:i="http://ns.adobe.com/AdobeIllustrator/10.0/" xmlns:graph="http://ns.adobe.com/Graphs/1.0/" xmlns="http://www.w3.org/2000/svg" xmlns:xlink="http://www.w3.org/1999/xlink" version="1.1" x="0px" y="0px" viewBox="0 0 100 100" style="enable-background:new 0 0 100 100;" xml:space="preserve"><g><g i:extraneous="self"><g><path d="M5273.1,2400.1v-2c0-2.8-5-4-9.7-4s-9.7,1.3-9.7,4v2c0,1.8,0.7,3.6,2,4.9l5,4.9c0.3,0.3,0.4,0.6,0.4,1v6.4     c0,0.4,0.2,0.7,0.6,0.8l2.9,0.9c0.5,0.1,1-0.2,1-0.8v-7.2c0-0.4,0.2-0.7,0.4-1l5.1-5C5272.4,2403.7,5273.1,2401.9,5273.1,2400.1z      M5263.4,2400c-4.8,0-7.4-1.3-7.5-1.8v0c0.1-0.5,2.7-1.8,7.5-1.8c4.8,0,7.3,1.3,7.5,1.8C5270.7,2398.7,5268.2,2400,5263.4,2400z"></path><path d="M5268.4,2410.3c-0.6,0-1,0.4-1,1c0,0.6,0.4,1,1,1h4.3c0.6,0,1-0.4,1-1c0-0.6-0.4-1-1-1H5268.4z"></path><path d="M5272.7,2413.7h-4.3c-0.6,0-1,0.4-1,1c0,0.6,0.4,1,1,1h4.3c0.6,0,1-0.4,1-1C5273.7,2414.1,5273.3,2413.7,5272.7,2413.7z"></path><path d="M5272.7,2417h-4.3c-0.6,0-1,0.4-1,1c0,0.6,0.4,1,1,1h4.3c0.6,0,1-0.4,1-1C5273.7,2417.5,5273.3,2417,5272.7,2417z"></path></g><g><path d="M76.8,41.9l2.4-6.3c0.5-1.3-0.5-2.8-1.9-2.8H48l-6.3,15.8l-1.3-11.1h0.9c0.5,0,1-0.4,1-1v-3c0-0.5-0.4-1-1-1h-4.9     c-0.5,0-1,0.4-1,1v3c0,0.5,0.4,1,1,1h0.9L36,48.6l-6.2-15.5c-5.7,1.3-10.2,6-10.8,12l-1.8,16.9c-0.2,1.7,0.9,3.2,2.6,3.5     c1.8,0.4,4.3,0.7,6.8,1l1.6,26.9c0.1,2.3,2,4,4.3,4h13c2.3,0,4.1-1.8,4.3-4l2.2-46.1c0-2.3,1.9-4.1,4.2-4.1h18.8     C75.7,43.2,76.5,42.7,76.8,41.9z"></path><circle cx="38.8" cy="16.2" r="13.7"></circle><path d="M71.5,51.7c-6.2,0-11.3,5.1-11.3,11.3c0,4.2,2.4,7.9,5.8,9.8v5.1c0,0.2,0.1,0.5,0.3,0.7l3.3,3.3l-2.9,2.9     c-0.4,0.4-0.4,1,0,1.3l2.9,2.8l-2.9,2.9c-0.4,0.4-0.4,0.9,0,1.3l4.2,4.2c0.4,0.4,1,0.4,1.3,0l4.6-4.6c0.2-0.2,0.3-0.4,0.3-0.7     V72.8c3.5-1.9,5.8-5.6,5.8-9.8C82.8,56.7,77.8,51.7,71.5,51.7z M71.5,62.2c-1.7,0-3.2-1.4-3.2-3.2c0-1.7,1.4-3.2,3.2-3.2     c1.7,0,3.2,1.4,3.2,3.2C74.7,60.8,73.3,62.2,71.5,62.2z"></path></g></g></g></svg>