<svg height='100px' width='100px'  fill="#FFFFFF" xmlns="http://www.w3.org/2000/svg" viewBox="0 0 64 64" x="0px" y="0px"><title>1</title><g data-name="Layer 10"><path d="M12,41.9a1,1,0,0,0,1-1V35.34H31V40.9a1,1,0,1,0,2,0V35.34H51V40.9a1,1,0,1,0,2,0V34.34a1,1,0,0,0-1-1H33V28a12.47,12.47,0,0,0,7.45-3.26,8.59,8.59,0,0,0-16.89,0A12.47,12.47,0,0,0,31,28v5.35H12a1,1,0,0,0-1,1V40.9A1,1,0,0,0,12,41.9Z"></path><path d="M39.16,50.17h0l-6.45-6.45a1,1,0,0,0-1.41,0l-3.75,3.75V45.93a1,1,0,0,0-2,0v3.54l-.7.7h0l-2.48,2.48a1,1,0,0,0,1.41,1.41l.78-.78V60a1,1,0,0,0,1,1H38.46a1,1,0,0,0,1-1V53.29l.78.78a1,1,0,0,0,1.41-1.41Z"></path><path d="M61.64,52.65l-2.48-2.48h0l-6.45-6.45a1,1,0,0,0-1.41,0l-3.75,3.75V45.93a1,1,0,0,0-2,0v3.54l-.7.7h0l-2.48,2.48a1,1,0,0,0,1.41,1.41l.78-.78V60a1,1,0,0,0,1,1H58.46a1,1,0,0,0,1-1V53.29l.78.78a1,1,0,0,0,1.41-1.41Z"></path><path d="M19.16,50.17h0l-6.45-6.45a1,1,0,0,0-1.41,0L7.54,47.46V45.93a1,1,0,0,0-2,0v3.54l-.7.7h0L2.36,52.65a1,1,0,0,0,1.41,1.41l.78-.78V60a1,1,0,0,0,1,1H18.46a1,1,0,0,0,1-1V53.29l.78.78a1,1,0,0,0,1.41-1.41Z"></path><path d="M28.22,16a5.11,5.11,0,1,1,7.56,0,11,11,0,0,1,6.55,6.6,12.52,12.52,0,1,0-20.65,0A11,11,0,0,1,28.22,16Z"></path><circle cx="32" cy="12.58" r="2.73"></circle></g></svg>