<svg height='100px' width='100px'  fill="#FFFFFF" xmlns="http://www.w3.org/2000/svg" xmlns:xlink="http://www.w3.org/1999/xlink" version="1.1" x="0px" y="0px" viewBox="0 0 16 16" style="enable-background:new 0 0 16 16;" xml:space="preserve"><g><circle cx="6.5" cy="3.5" r="3.5"></circle><path d="M10,8H9.563l-2.117,4.838l-0.649-2.635L8,9L6.5,8L5,9l1.2,1.2l-0.655,2.618L3.438,8H3c-1.657,0-3,1.343-3,3v2.5   C0,14.325,0.675,15,1.5,15h6.479H8v-2h2v-1h2v-2h0.816C12.403,8.837,11.305,8,10,8z"></path><rect x="15" y="8" width="1" height="8"></rect><rect x="13" y="11" width="1" height="5"></rect><rect x="11" y="13" width="1" height="3"></rect><rect x="9" y="14" width="1" height="2"></rect><path d="M13.5,3C13.225,3,13,2.776,13,2.5S13.225,2,13.5,2h1C14.776,2,15,1.776,15,1.5S14.776,1,14.5,1H14V0.5   C14,0.224,13.776,0,13.5,0S13,0.224,13,0.5v0.592c-0.581,0.207-1,0.757-1,1.408C12,3.327,12.673,4,13.5,4C13.775,4,14,4.224,14,4.5   S13.775,5,13.5,5h-1C12.224,5,12,5.224,12,5.5S12.224,6,12.5,6H13v0.5C13,6.776,13.224,7,13.5,7S14,6.776,14,6.5V5.908   c0.581-0.207,1-0.757,1-1.408C15,3.673,14.327,3,13.5,3z"></path></g></svg>