<svg height='100px' width='100px'  fill="#e4002c" xmlns="http://www.w3.org/2000/svg" xmlns:xlink="http://www.w3.org/1999/xlink" viewBox="0 0 50 112" version="1.1" x="0px" y="0px"><title>Question mark head - philosopher - interviewer</title><desc>Created with Sketch.</desc><g stroke="none" stroke-width="1" fill="none" fill-rule="evenodd"><g transform="translate(-2310.000000, -1771.000000)" fill="#e4002c" fill-rule="nonzero"><path d="M2319.09091,1839.40158 C2318.36258,1840.72844 2317.55366,1841.54028 2316.66413,1841.83712 C2314.76065,1842.47231 2313.82389,1842.18735 2312.61537,1841.56246 C2311.00978,1840.73225 2310,1839.06587 2310,1837.24649 L2310,1811.50242 C2310,1805.4275 2314.88417,1800.5028 2320.90909,1800.5028 L2331.81818,1800.5028 L2333.48232,1806.01606 L2334.77569,1810.30095 L2335,1811.04411 L2335.19447,1810.29245 L2336.31575,1805.95855 L2337.72727,1800.5028 L2349.09091,1800.5028 C2355.11583,1800.5028 2360,1805.4275 2360,1811.50242 L2360,1837.03326 C2360,1839.85998 2357.72735,1842.15148 2354.9239,1842.15148 C2354.31974,1842.15148 2354.09091,1842.20972 2352.85583,1841.83712 C2351.87119,1841.54007 2351.07076,1840.72822 2350.45455,1839.40158 L2350.45455,1843.48305 L2350.45455,1876.58355 C2350.45455,1880.12726 2347.60545,1883 2344.09091,1883 C2340.57637,1883 2337.72727,1880.12726 2337.72727,1876.58355 L2337.72727,1846.79289 L2331.81818,1846.79289 L2331.81818,1876.58355 C2331.81818,1880.12726 2328.96908,1883 2325.45455,1883 C2321.94001,1883 2319.09091,1880.12726 2319.09091,1876.58355 L2319.09091,1843.50425 L2319.09091,1839.40158 Z M2334.82192,1771 C2341.93977,1771 2347.72932,1776.85198 2347.72932,1784.04594 C2347.72932,1791.23938 2341.93977,1797.09241 2334.82192,1797.09241 C2327.70511,1797.09241 2321.91452,1791.2399 2321.91452,1784.04594 C2321.91452,1776.85251 2327.70459,1771 2334.82192,1771 Z M2334.992,1776.17756 C2332.70216,1776.17756 2330.78745,1777.71306 2330.22712,1779.99891 C2330.20259,1780.09857 2330.21877,1780.20139 2330.27094,1780.28945 C2330.32311,1780.37751 2330.40554,1780.43921 2330.50415,1780.46399 L2333.17276,1781.13841 C2333.35901,1781.18586 2333.55779,1781.07671 2333.62196,1780.89638 C2333.83795,1780.29209 2334.33202,1779.68253 2334.95287,1779.68253 C2335.9311,1779.68253 2336.27961,1780.30369 2336.27961,1780.88478 C2336.27961,1781.49117 2336.27961,1782.24574 2333.71691,1782.24574 C2333.50718,1782.24574 2333.3371,1782.41817 2333.3371,1782.62961 L2333.3371,1786.63657 C2333.3371,1786.84749 2333.50718,1787.02045 2333.71691,1787.02045 L2336.42361,1787.02045 C2336.63334,1787.02045 2336.80394,1786.84802 2336.80394,1786.63657 L2336.80394,1785.19177 C2338.5924,1784.77784 2339.98331,1783.02087 2339.98331,1781.16266 C2339.98331,1778.13438 2338.02373,1776.17756 2334.992,1776.17756 Z M2334.9727,1787.69908 C2333.82647,1787.69908 2332.96303,1788.57176 2332.96303,1789.72972 C2332.96303,1790.88609 2333.82595,1791.7593 2334.9727,1791.7593 C2336.11683,1791.7593 2336.98133,1790.88661 2336.98133,1789.72972 C2336.98133,1788.57176 2336.11736,1787.69908 2334.9727,1787.69908 Z"></path></g></g></svg>